<?xml version="1.0" encoding="utf-8"?>
<!-- Generator: Adobe Illustrator 15.1.0, SVG Export Plug-In . SVG Version: 6.00 Build 0)  -->
<!DOCTYPE svg PUBLIC "-//W3C//DTD SVG 1.1//EN" "http://www.w3.org/Graphics/SVG/1.1/DTD/svg11.dtd">
<svg version="1.1" id="Layer_1" xmlns="http://www.w3.org/2000/svg" xmlns:xlink="http://www.w3.org/1999/xlink" x="0px" y="0px"
	 width="30.167px" height="23.031px" viewBox="0 0 30.167 23.031" enable-background="new 0 0 30.167 23.031" xml:space="preserve">
<path fill="#D3CCCC" d="M0.46,11.49c0-2.744,2.225-4.968,4.969-4.968c2.742,0,4.967,2.224,4.967,4.968
	c0,2.745-2.225,4.967-4.967,4.967C2.685,16.457,0.46,14.234,0.46,11.49"/>
<g>
	<path fill="#D3CCCC" d="M12.419,11.463c0,0,2.863-3.898,5.977-4.081c3.025-0.178,3.873,3.726,11.066,4.081
		c-6.42,0.355-8.301,4.08-10.955,4.257C15.851,15.898,12.419,11.463,12.419,11.463z"/>
	<path fill="#D3CCCC" d="M12.419,15.633c0,0,2.193-0.797,4.021,0.194s1.947,3.984,5.561,6.901c-3.666-2.472-5.328-1.162-6.85-2.167
		C13.63,19.555,12.419,15.633,12.419,15.633z"/>
	<path fill="#D3CCCC" d="M12.419,7.347c0,0,2.193,0.796,4.021-0.194s1.947-3.984,5.561-6.903c-3.666,2.474-5.328,1.162-6.85,2.169
		C13.63,3.425,12.419,7.347,12.419,7.347z"/>
</g>
</svg>
