<?xml version="1.0" encoding="utf-8"?>
<!-- Generator: Adobe Illustrator 15.1.0, SVG Export Plug-In . SVG Version: 6.00 Build 0)  -->
<!DOCTYPE svg PUBLIC "-//W3C//DTD SVG 1.1//EN" "http://www.w3.org/Graphics/SVG/1.1/DTD/svg11.dtd">
<svg version="1.1" id="Layer_1" xmlns="http://www.w3.org/2000/svg" xmlns:xlink="http://www.w3.org/1999/xlink" x="0px" y="0px"
	 width="474.75px" height="22.625px" viewBox="0 0 474.75 22.625" enable-background="new 0 0 474.75 22.625" xml:space="preserve">
<path fill="#D3CCCC" d="M280.55,11.525c0-5.012,5.521-3.789,5.521-0.002h-0.002v0.001v0.003h0.002
	C286.066,15.279,280.55,16.549,280.55,11.525L280.55,11.525z M328.802,11.524c-9.125,0.471-18.274,1.509-26.036,4.348
	c-3.379-2.56-5.658-3.224-9.64-4.348c3.981-1.125,6.261-1.789,9.64-4.348C310.527,10.015,319.677,11.053,328.802,11.524z
	 M194.854,11.525c0-5.012-5.52-3.789-5.52-0.002h0.002v0.001v0.003h-0.002C189.337,15.279,194.854,16.549,194.854,11.525z
	 M146.603,11.524c9.125,0.471,18.274,1.509,26.037,4.348c3.379-2.56,5.657-3.224,9.639-4.348c-3.983-1.125-6.26-1.789-9.639-4.348
	C164.877,10.015,155.728,11.053,146.603,11.524z M2.995,10.888h110.26c7.067,0,14.108-0.065,21.172-0.231
	c12.781-0.303,26.948-0.638,38.038-4.769l0.033-0.014l0.03-0.011l0.001,0.001c0.198-0.072,0.425-0.046,0.604,0.091
	c3.747,2.866,10.2,4.545,14.925,5.197l0.02,0.002c0.09-1.154,0.596-2.194,1.368-2.965c0.851-0.851,2.028-1.379,3.329-1.379V6.807
	h0.003h0.001V6.81c1.304,0,2.483,0.528,3.334,1.379v0.003c0.851,0.851,1.378,2.027,1.379,3.329h0.002v0.002v0.002h-0.002
	c-0.001,1.3-0.529,2.479-1.381,3.333l0.001,0.002c-0.851,0.852-2.03,1.377-3.332,1.379v0.002h-0.003h-0.002v-0.002
	c-1.3,0-2.479-0.528-3.333-1.381h-0.001c-0.771-0.77-1.275-1.81-1.365-2.965l-0.02,0.002c-4.724,0.652-11.179,2.334-14.925,5.197
	c-0.18,0.137-0.408,0.165-0.606,0.092l0,0l-0.03-0.011c-0.015-0.004-0.028-0.01-0.042-0.017c-11.09-4.129-25.252-4.463-38.029-4.766
	c-7.043-0.166-14.062-0.229-21.109-0.229H2.995c-0.418,0-0.76-0.286-0.76-0.636l0,0C2.235,11.175,2.577,10.888,2.995,10.888z
	 M250.256,16.922c-0.636-0.152-0.406-0.895,0.264-0.742c3.92,0.881,7.924,1.496,11.953,1.404c3.584-0.083,8.969-0.748,11.055-4.047
	c0.953-1.504,0.807-3.396-0.346-4.746c-1.886-2.206-6-2.836-8.74-3.042c-7.711-0.579-17.606,4.352-25.228,6.985
	c-9.212,3.185-18.437,6.703-28.423,5.955c-3.1-0.233-7.308-1.321-9.342-3.832c-1.384-1.705-1.632-4.018-0.444-5.898
	c2.308-3.643,7.874-4.825,11.911-4.917c4.06-0.092,8.425,0.697,12.231,2.084c0.635,0.155,0.406,0.894-0.263,0.746
	c-3.919-0.88-7.923-1.5-11.951-1.406c-3.584,0.082-8.971,0.75-11.057,4.046c-0.952,1.504-0.805,3.395,0.35,4.746
	c1.883,2.207,5.998,2.836,8.737,3.043c8.497,0.639,19.197-4.748,27.458-7.604c8.563-2.959,16.876-6.038,26.192-5.334
	c3.1,0.23,7.307,1.316,9.343,3.827c1.386,1.704,1.633,4.017,0.444,5.898c-2.307,3.646-7.873,4.826-11.91,4.918
	C258.428,19.1,254.063,18.311,250.256,16.922z M214.158,11.514c-0.389-0.483,0.105-1.136,0.565-1.358
	c0.25-0.121,1.333-0.366,1.53-0.13c2.476,3.083,14.567-2.931,17.544-4.074c6.535-2.513,13.541-5.024,20.626-3.475
	c0.655,0.138,0.521,0.806-0.147,0.666c-6.887-1.507-13.771,2.183-20.104,4.62C230.705,9.094,216.975,15.016,214.158,11.514z
	 M261.246,11.536c0.389,0.483-0.105,1.136-0.566,1.356c-0.248,0.123-1.332,0.365-1.527,0.131
	c-2.477-3.083-14.568,2.931-17.545,4.074c-6.535,2.514-13.541,5.023-20.626,3.475c-0.655-0.139-0.521-0.807,0.147-0.666
	c6.889,1.509,13.771-2.182,20.104-4.619C244.698,13.955,258.43,8.033,261.246,11.536z M282.625,6.807L282.625,6.807l-0.001,0.003
	c-1.304,0-2.483,0.528-3.335,1.379v0.003c-0.852,0.851-1.378,2.027-1.379,3.329h-0.003v0.002v0.002h0.003
	c0.001,1.3,0.527,2.479,1.381,3.333l-0.001,0.002c0.851,0.852,2.03,1.377,3.331,1.379v0.002h0.004h0.001v-0.002
	c1.302,0,2.479-0.528,3.333-1.381h0.002c0.77-0.77,1.273-1.81,1.363-2.965l0.021,0.002c4.725,0.652,11.176,2.334,14.924,5.197
	c0.181,0.137,0.408,0.165,0.604,0.092h0.001l0.03-0.011c0.014-0.004,0.028-0.01,0.041-0.017c11.091-4.129,25.253-4.463,38.03-4.766
	c7.041-0.166,14.062-0.229,21.107-0.229h110.323c0.418,0,0.76-0.286,0.76-0.636l0,0c0-0.351-0.342-0.637-0.76-0.637H362.148
	c-7.067,0-14.107-0.065-21.172-0.231c-12.781-0.303-26.949-0.638-38.039-4.769l-0.031-0.014l-0.03-0.011l-0.001,0.001
	c-0.197-0.072-0.425-0.046-0.605,0.091c-3.746,2.866-10.199,4.545-14.924,5.197l-0.021,0.002c-0.089-1.154-0.595-2.194-1.367-2.965
	c-0.853-0.851-2.028-1.379-3.329-1.379V6.807H282.625z"/>
</svg>
