<svg xmlns="http://www.w3.org/2000/svg" width="2100" height="1500" viewBox="0 0 2100 1500">
  <defs>
    <style>
      .cls-1 {
        fill-rule: evenodd;
      }
    </style>
  </defs>
  <path id="Храм_Иконы_Божией_Матери_Всех_скорбящих_Радость_" data-name="Храм Иконы Божией Матери “Всех скорбящих Радость”" class="cls-1" d="M585.706,513.532q-1.046-.038-2.545-0.169a5.071,5.071,0,0,1-2.309-.658,10.7,10.7,0,0,1-2.076-2.087,18.425,18.425,0,0,1-2.1-3.215q-2.51-4.962-5.251-10.414t-4.993-9.738q4.433-4.887,7.571-8.29t6.828-7.275q1.982-2.068,3.132-3.159a11.6,11.6,0,0,1,3.272-2.03,11.826,11.826,0,0,1,2.66-.695,23.047,23.047,0,0,1,2.513-.282l0.471-2.67H572.987l-0.471,2.67a14.793,14.793,0,0,1,4.63.714,1.528,1.528,0,0,1,1.1,1.767q-0.246,1.392-4.144,6.016t-9.162,10.377q-1.74-3.346-2.906-5.9t-2.111-4.662q-0.921-2.031-1.545-3.817a5.9,5.9,0,0,1-.5-2.5q0.174-.977,2.606-1.447a29.817,29.817,0,0,1,4.626-.545l0.471-2.67h-24.7l-0.472,2.67q0.927,0.075,2.482.319a8.517,8.517,0,0,1,2.384.658,6.17,6.17,0,0,1,2.165,1.692,23.44,23.44,0,0,1,1.948,3.346q2.846,5.6,5.365,10.509t4.136,8.1q-3.61,4.06-8.242,9t-7.622,8.252a34.689,34.689,0,0,1-2.895,2.877,16.3,16.3,0,0,1-3.54,2.274,9.206,9.206,0,0,1-2.623.7q-1.558.207-2.55,0.282l-0.47,2.669h19.926l0.471-2.669q-3.885-.15-4.928-0.733a1.587,1.587,0,0,1-.825-1.824q0.193-1.091,5.487-7.237t9.373-10.509q1.506,2.97,3,6.222t2.574,5.659a37.37,37.37,0,0,1,1.522,3.948,6.41,6.41,0,0,1,.454,2.331q-0.186,1.053-2.174,1.56a23.4,23.4,0,0,1-5.085.583l-0.47,2.669h24.965Zm37.55-33.951a12.232,12.232,0,0,0-6.076-1.466,14.008,14.008,0,0,0-6.018,1.5,20.81,20.81,0,0,0-5.513,3.759l-0.287-.075,0.735-4.173-0.446-.451-12.78.827-0.43,2.444a16.5,16.5,0,0,1,2.274.319,4.478,4.478,0,0,1,1.758.7,3.753,3.753,0,0,1,1.167,1.692,4.2,4.2,0,0,1,.18,2.18l-6.954,39.44a5.852,5.852,0,0,1-.843,2.219,3.25,3.25,0,0,1-1.811,1.316,11.582,11.582,0,0,1-2.021.376q-1.11.113-2.29,0.187l-0.444,2.52h20.717l0.444-2.52a17.5,17.5,0,0,1-2.7-.357,14.53,14.53,0,0,1-2.46-.658,2.374,2.374,0,0,1-1.385-1.316,4.091,4.091,0,0,1-.128-2.255l1.963-11.129h0.3a10.445,10.445,0,0,0,3.185,1.767,15.656,15.656,0,0,0,5.357.752,17.457,17.457,0,0,0,6.787-1.391,23.213,23.213,0,0,0,6.3-3.986,25.156,25.156,0,0,0,4.963-6.185,24.216,24.216,0,0,0,2.882-8.027,23.131,23.131,0,0,0,.18-7.952,15.793,15.793,0,0,0-2.363-6.109A12.064,12.064,0,0,0,623.256,479.581ZM612.85,513.325a9.218,9.218,0,0,1-4.256,1.109,7.6,7.6,0,0,1-3.205-.583,8.488,8.488,0,0,1-2.251-1.522,7.64,7.64,0,0,1-1.379-1.88,6.733,6.733,0,0,1-.738-2.106l3.865-21.919a18.575,18.575,0,0,1,3.9-2.914,9.927,9.927,0,0,1,4.953-1.222,7.739,7.739,0,0,1,4.725,1.354,8.145,8.145,0,0,1,2.723,3.534,14.116,14.116,0,0,1,.991,5.038,27.662,27.662,0,0,1-.4,5.677,33.65,33.65,0,0,1-1.928,6.88,20.919,20.919,0,0,1-3.173,5.415A12.188,12.188,0,0,1,612.85,513.325Zm54.666-.207q-1.278,0-2.493-.037a3.424,3.424,0,0,1-1.719-.376,3.183,3.183,0,0,1-1.3-1.467,4.274,4.274,0,0,1-.1-2.331q0.869-4.924,1.714-9.08t1.793-9.531a15.476,15.476,0,0,0,.088-6.147,6.836,6.836,0,0,0-2.247-3.778,8.318,8.318,0,0,0-3.94-1.861,29.521,29.521,0,0,0-5.432-.433,17.415,17.415,0,0,0-4.829.733,20.95,20.95,0,0,0-4.413,1.786,15.861,15.861,0,0,0-3.674,2.82,6.454,6.454,0,0,0-1.805,3.309,4.779,4.779,0,0,0,.356,2.989,2.534,2.534,0,0,0,2.528,1.334,5.432,5.432,0,0,0,3.482-1.09,4,4,0,0,0,1.609-2.406,11.228,11.228,0,0,0,.12-2.707,9.951,9.951,0,0,1,.034-2.219,7.308,7.308,0,0,1,2.3-1.221,9.541,9.541,0,0,1,3.317-.583,5.568,5.568,0,0,1,3.71,1.034,5.817,5.817,0,0,1,1.7,2.425,6.955,6.955,0,0,1,.42,2.632,15.524,15.524,0,0,1-.125,1.879l-0.656,3.723a61.325,61.325,0,0,1-7.452,2.707q-5.475,1.73-7.279,2.368a26.871,26.871,0,0,0-3.144,1.41,12.321,12.321,0,0,0-5.178,5.057,12.844,12.844,0,0,0-1.277,3.835,7.632,7.632,0,0,0,1.508,6.692,8.06,8.06,0,0,0,6.411,2.557,16.329,16.329,0,0,0,7-1.429,23.54,23.54,0,0,0,5.974-4.135h0.226a5.21,5.21,0,0,0,1.531,4,6.39,6.39,0,0,0,4.439,1.372,11.389,11.389,0,0,0,3.1-.395q1.4-.395,3.284-1.034Zm-12.558-4.474A17.653,17.653,0,0,1,651,511.708a9.723,9.723,0,0,1-4.928,1.3,5.082,5.082,0,0,1-3.9-1.466q-1.377-1.465-.827-4.587a9.03,9.03,0,0,1,1.823-4.154,13.2,13.2,0,0,1,3.5-3.027,27.955,27.955,0,0,1,4.872-2.256q2.565-.9,5.927-1.842Zm65.879,5.076a14.352,14.352,0,0,1-1.853-.263,6.355,6.355,0,0,1-1.611-.564,2.318,2.318,0,0,1-1.319-1.26,4.056,4.056,0,0,1-.077-2.124l4.243-24.063a5.076,5.076,0,0,1,.895-2.2,3.2,3.2,0,0,1,1.77-1.185q0.7-.149,1.531-0.263t1.932-.188l0.437-2.481H711.22a14.939,14.939,0,0,1-.834,1.955q-0.716,1.5-1.284,2.594l-12.074,22-4.607-26.544H677.006l-0.437,2.481q0.776,0.077,1.67.226a6.338,6.338,0,0,1,1.793.6,2.5,2.5,0,0,1,1.337,1.373,4.449,4.449,0,0,1,.106,2.387L677.5,508.757a8.97,8.97,0,0,1-1,3.026,3.252,3.252,0,0,1-1.86,1.486,7.541,7.541,0,0,1-1.65.3q-0.936.077-1.813,0.151l-0.437,2.481H685.17l0.438-2.481a14.352,14.352,0,0,1-1.853-.263,6.355,6.355,0,0,1-1.611-.564,2.327,2.327,0,0,1-1.295-1.5,6.486,6.486,0,0,1-.015-3.008l4.581-25.98h0.827l5.952,33.2h2.332l18.3-32.56h0.9l-4.734,26.845a4.527,4.527,0,0,1-.964,2.162,3.8,3.8,0,0,1-1.889,1.222,7.541,7.541,0,0,1-1.65.3q-0.936.077-1.813,0.151L702.24,516.2H720.4Zm80.417-.188a15.717,15.717,0,0,1-2.51-.376,8.222,8.222,0,0,1-2.155-.677,2.887,2.887,0,0,1-1.432-1.579,4.822,4.822,0,0,1-.041-2.218l6.782-38.463a6.838,6.838,0,0,1,.836-2.293,3.436,3.436,0,0,1,1.977-1.5,20.466,20.466,0,0,1,2.374-.564,17.945,17.945,0,0,1,2.634-.338l0.472-2.67h-22.07l-0.471,2.67a16.47,16.47,0,0,1,2.511.47,11.419,11.419,0,0,1,2.445.845,2.776,2.776,0,0,1,1.437,1.448,4.277,4.277,0,0,1,.094,2.237l-31.46,32.146,5.721-32.447a6.839,6.839,0,0,1,.837-2.293,3.434,3.434,0,0,1,1.976-1.5,20.228,20.228,0,0,1,2.412-.564,18.8,18.8,0,0,1,2.672-.338l0.471-2.67H754.7l-0.471,2.67a12.9,12.9,0,0,1,2.421.451,11.541,11.541,0,0,1,2.31.864,2.641,2.641,0,0,1,1.417,1.561,4.6,4.6,0,0,1,.1,2.2l-6.789,38.5a5.537,5.537,0,0,1-.947,2.388,4.092,4.092,0,0,1-1.9,1.372,8.676,8.676,0,0,1-2.43.451q-1.737.151-2.653,0.226l-0.47,2.669h22.07l0.47-2.669a17.6,17.6,0,0,1-2.64-.376,8.4,8.4,0,0,1-2.25-.677,3.057,3.057,0,0,1-1.449-1.485,4.228,4.228,0,0,1-.057-2.124l0.152-.865,31.467-32.184L787.185,509.1a5.537,5.537,0,0,1-.948,2.388,4.082,4.082,0,0,1-1.9,1.372,8.81,8.81,0,0,1-2.467.451q-1.774.151-2.69,0.226l-0.471,2.669h22.07Zm45.836,0.188q-0.7-.075-1.562-0.207t-1.692-.32a4.837,4.837,0,0,1-1.819-.77,3.819,3.819,0,0,1-1.4-2.313q-0.158-.6-0.668-2.5T839,504.4a12.088,12.088,0,0,0-2.6-4.55,9.171,9.171,0,0,0-5-2.481l0.087-.489a13.167,13.167,0,0,0,3.233-2.669,25.716,25.716,0,0,0,3.141-4.7q0.873-1.542,1.893-3.591a8.074,8.074,0,0,1,1.847-2.688,23.285,23.285,0,0,0,2.14,2.895,3.26,3.26,0,0,0,2.5.865,4.361,4.361,0,0,0,3.044-1.166,4.82,4.82,0,0,0,1.562-2.782,3.483,3.483,0,0,0-.8-3.121q-1.136-1.24-4.03-1.24a9.628,9.628,0,0,0-3.638.7,10.452,10.452,0,0,0-3.41,2.388,15.227,15.227,0,0,0-2.051,2.782q-1.089,1.8-1.988,3.5-0.851,1.617-2,3.459a13.881,13.881,0,0,1-2.4,2.97,7.183,7.183,0,0,1-2.307,1.353,7.407,7.407,0,0,1-2.567.489h-2.369l1.916-10.866a5.064,5.064,0,0,1,.895-2.2,3.2,3.2,0,0,1,1.769-1.185q0.7-.149,1.532-0.263t1.931-.188l0.438-2.481H813.674l-0.438,2.481q0.777,0.077,1.671.226a6.359,6.359,0,0,1,1.793.6,2.6,2.6,0,0,1,1.35,1.3,3.556,3.556,0,0,1,.158,2.086l-4.242,24.063a4.934,4.934,0,0,1-.9,2.2,3.445,3.445,0,0,1-1.769,1.185,7.55,7.55,0,0,1-1.651.3q-0.934.077-1.812,0.151L807.4,516.2h18.085l0.437-2.481a14.376,14.376,0,0,1-1.853-.263,6.334,6.334,0,0,1-1.61-.564,2.629,2.629,0,0,1-1.354-1.279,3.543,3.543,0,0,1-.155-2.1l1.829-10.377h0.865a7.747,7.747,0,0,1,5.192,1.579,11.07,11.07,0,0,1,2.99,5.113,34.677,34.677,0,0,1,1.32,5.095q0.363,2.2.76,5.282h12.746Zm39.555-30.4q-4.132-5.245-11.915-5.245A20.364,20.364,0,0,0,860.5,483.6a24.425,24.425,0,0,0-7.563,14.212,20.8,20.8,0,0,0,.012,8.14,14.944,14.944,0,0,0,2.808,6.147,13.212,13.212,0,0,0,4.991,3.891,15.611,15.611,0,0,0,6.494,1.335,21.232,21.232,0,0,0,7.929-1.466,21.017,21.017,0,0,0,6.8-4.474,23.214,23.214,0,0,0,4.664-6.411,27.7,27.7,0,0,0,2.6-7.688Q890.777,488.568,886.645,483.322Zm-10.161,26.6q-3.548,4.55-8.247,4.55a7.01,7.01,0,0,1-4.551-1.373,8.282,8.282,0,0,1-2.549-3.778,16.983,16.983,0,0,1-.9-5.471,35.8,35.8,0,0,1,.594-6.673,37.688,37.688,0,0,1,1.489-5.677,20.853,20.853,0,0,1,2.614-5.227,13.662,13.662,0,0,1,4.017-3.91,9.646,9.646,0,0,1,5.2-1.428,6.885,6.885,0,0,1,4.526,1.409,8.126,8.126,0,0,1,2.5,3.741,16.813,16.813,0,0,1,.753,5.321,33.689,33.689,0,0,1-.486,5.959Q880.03,505.374,876.484,509.922Zm56.78,3.8a14.327,14.327,0,0,1-1.853-.263,6.355,6.355,0,0,1-1.611-.564,2.323,2.323,0,0,1-1.32-1.26,4.068,4.068,0,0,1-.076-2.124l4.243-24.063a5.064,5.064,0,0,1,.895-2.2,3.2,3.2,0,0,1,1.769-1.185q0.7-.149,1.532-0.263t1.932-.188l0.437-2.481H921.09l-0.437,2.481q0.775,0.077,1.67.226a6.338,6.338,0,0,1,1.793.6,2.6,2.6,0,0,1,1.351,1.3,3.564,3.564,0,0,1,.158,2.086L924.008,495H907.5l1.684-9.55a5.064,5.064,0,0,1,.895-2.2,3.2,3.2,0,0,1,1.77-1.185q0.7-.149,1.531-0.263t1.932-.188l0.437-2.481H897.629l-0.437,2.481q0.775,0.077,1.67.226a6.338,6.338,0,0,1,1.793.6,2.6,2.6,0,0,1,1.351,1.3,3.564,3.564,0,0,1,.158,2.086l-4.243,24.063a4.922,4.922,0,0,1-.9,2.2,3.444,3.444,0,0,1-1.77,1.185,7.541,7.541,0,0,1-1.65.3q-0.936.077-1.813,0.151l-0.437,2.481h18.122l0.437-2.481a14.336,14.336,0,0,1-1.852-.263,6.328,6.328,0,0,1-1.611-.564,2.629,2.629,0,0,1-1.354-1.279,3.543,3.543,0,0,1-.155-2.1l2.015-11.43h16.506l-2.082,11.806a4.567,4.567,0,0,1-.952,2.2,3.764,3.764,0,0,1-1.825,1.185,7.55,7.55,0,0,1-1.651.3q-0.934.077-1.812,0.151L914.7,516.2h18.122Zm32.34-5.9a10.448,10.448,0,0,1-1.845,2.895,8.535,8.535,0,0,1-2.985,2.105,10.767,10.767,0,0,1-4.413.828q-3.008,0-4.015-.79a2.273,2.273,0,0,1-.729-2.369l2.334-13.234q0.639,0,1.865-.132a29.85,29.85,0,0,1,3.069-.131q4.4,0,6.3,2.237a6.254,6.254,0,0,1,1.342,5.395A15.252,15.252,0,0,1,965.6,507.817Zm8.168-8.046a7.3,7.3,0,0,0-2.807-3.271,13.165,13.165,0,0,0-4.479-1.786,29.862,29.862,0,0,0-6.308-.583q-2.029,0-3.112.057t-2.591.094l1.557-8.836a5.56,5.56,0,0,1,.823-2.105,3.094,3.094,0,0,1,1.842-1.279,11.816,11.816,0,0,1,1.835-.281q1.089-.094,2.23-0.17l0.438-2.481H944.513l-0.437,2.481q0.775,0.077,1.671.226a6.359,6.359,0,0,1,1.793.6,2.6,2.6,0,0,1,1.35,1.3,3.556,3.556,0,0,1,.158,2.086l-4.243,24.063a4.922,4.922,0,0,1-.895,2.2,3.445,3.445,0,0,1-1.769,1.185,7.55,7.55,0,0,1-1.651.3q-0.935.077-1.812,0.151L938.24,516.2h19.551a20.966,20.966,0,0,0,5.308-.677,18.632,18.632,0,0,0,4.87-2.03,14.379,14.379,0,0,0,3.934-3.553,11.574,11.574,0,0,0,2.183-5.132A8.872,8.872,0,0,0,973.772,499.771Zm17.843,13.949a14.352,14.352,0,0,1-1.853-.263,6.355,6.355,0,0,1-1.611-.564,2.324,2.324,0,0,1-1.319-1.26,4.057,4.057,0,0,1-.076-2.124L991,485.446a5.065,5.065,0,0,1,.9-2.2,3.2,3.2,0,0,1,1.769-1.185q0.7-.149,1.532-0.263t1.931-.188l0.438-2.481H979.4l-0.438,2.481q0.777,0.077,1.671.226a6.338,6.338,0,0,1,1.793.6,2.6,2.6,0,0,1,1.351,1.3,3.572,3.572,0,0,1,.158,2.086L979.7,509.885a4.567,4.567,0,0,1-.952,2.2,3.764,3.764,0,0,1-1.825,1.185,7.478,7.478,0,0,1-1.614.3l-1.774.151-0.438,2.481h18.084Zm56.715-3.929a12.982,12.982,0,0,1-9.33,3.44q-4.32,0-5.58-1.184c-0.84-.79-1.11-2.012-0.82-3.666l3.45-19.551c0.53-.025,1.3-0.056,2.32-0.094s2.4-.056,4.13-0.056q5.685,0,8.58,3.026,2.91,3.027,2.01,8.14Q1051.935,506.352,1048.33,509.791Zm13.54-16.355a10.044,10.044,0,0,0-3.74-4.681,17.1,17.1,0,0,0-6.3-2.576,38.626,38.626,0,0,0-7.92-.77c-1.16,0-2.35.013-3.58,0.037l-3.7.075,3.47-19.7h7.79c1.37,0,2.6.026,3.67,0.076s1.98,0.125,2.74.225c1.44,0.2,2.81,1.385,4.09,3.553a14.725,14.725,0,0,1,2.19,6.222h2.82l2.3-13.046h-40.07l-0.48,2.67a16.7,16.7,0,0,1,2.27.376,9.1,9.1,0,0,1,2.37.864,2.571,2.571,0,0,1,1.43,1.579,5.3,5.3,0,0,1,.03,2.256l-6.76,38.35a5.348,5.348,0,0,1-.89,2.274,4.337,4.337,0,0,1-1.9,1.41,11.192,11.192,0,0,1-2.59.583c-1.18.163-2.07,0.27-2.69,0.32l-0.47,2.669h25.27a25.7,25.7,0,0,0,6.8-.921,22.587,22.587,0,0,0,6.26-2.763,18.1,18.1,0,0,0,5.18-4.963,17.4,17.4,0,0,0,2.84-7.069A12.888,12.888,0,0,0,1061.87,493.436Zm40.25-10.114q-4.14-5.245-11.92-5.245a20.376,20.376,0,0,0-14.23,5.527,24.421,24.421,0,0,0-7.56,14.212,20.769,20.769,0,0,0,.01,8.14,15.011,15.011,0,0,0,2.81,6.147,13.217,13.217,0,0,0,4.99,3.891,15.649,15.649,0,0,0,6.5,1.335,21.274,21.274,0,0,0,7.93-1.466,21,21,0,0,0,6.8-4.474,23.143,23.143,0,0,0,4.66-6.411,27.418,27.418,0,0,0,2.6-7.688Q1106.255,488.568,1102.12,483.322Zm-10.16,26.6q-3.555,4.55-8.25,4.55a7,7,0,0,1-4.55-1.373,8.291,8.291,0,0,1-2.55-3.778,17.035,17.035,0,0,1-.9-5.471,35.169,35.169,0,0,1,.6-6.673,37.458,37.458,0,0,1,1.49-5.677,20.845,20.845,0,0,1,2.61-5.227,13.552,13.552,0,0,1,4.02-3.91,9.621,9.621,0,0,1,5.19-1.428,6.9,6.9,0,0,1,4.53,1.409,8.113,8.113,0,0,1,2.5,3.741,17.052,17.052,0,0,1,.75,5.321,33.513,33.513,0,0,1-.48,5.959Q1095.495,505.374,1091.96,509.922Zm72.57,3.8a14.08,14.08,0,0,1-1.47-.188c-0.59-.1-1.18-0.213-1.79-0.339a3.415,3.415,0,0,1-1.9-1.015,4.716,4.716,0,0,1-1.09-2.068c-0.1-.4-0.32-1.234-0.67-2.5s-0.66-2.337-.95-3.214a13.152,13.152,0,0,0-2.49-4.55,8.538,8.538,0,0,0-4.88-2.481l0.08-.489a11.827,11.827,0,0,0,3.59-3.177,24.775,24.775,0,0,0,2.67-4.343c0.52-1.1,1.09-2.312,1.73-3.628a6.57,6.57,0,0,1,1.89-2.613,19.434,19.434,0,0,0,2.2,2.97,3.275,3.275,0,0,0,2.46.865,4.615,4.615,0,0,0,4.58-3.835,3.585,3.585,0,0,0-.77-3.158c-0.74-.852-2.08-1.278-4.01-1.278a10.393,10.393,0,0,0-3.68.62,11.189,11.189,0,0,0-3.59,2.463,12.162,12.162,0,0,0-2.09,2.763c-0.63,1.116-1.25,2.288-1.84,3.516-0.51,1.078-1.13,2.231-1.83,3.459a12.224,12.224,0,0,1-2.31,2.97,7.112,7.112,0,0,1-2.31,1.353,7.378,7.378,0,0,1-2.56.489h-2.22l1.93-10.941a5.144,5.144,0,0,1,.87-2.2,3.133,3.133,0,0,1,1.75-1.185,8.92,8.92,0,0,1,1.48-.244c0.48-.038,1.11-0.081,1.9-0.132l0.44-2.481h-17.79l-0.44,2.481c0.5,0.051,1.04.113,1.63,0.188a5.608,5.608,0,0,1,1.78.564,2.509,2.509,0,0,1,1.33,1.3,3.725,3.725,0,0,1,.14,2.087l-1.86,10.565h-2.22a6.123,6.123,0,0,1-2.44-.451,4.507,4.507,0,0,1-1.79-1.391,7.553,7.553,0,0,1-1.21-2.839q-0.42-1.785-.66-3.59c-0.18-1.279-.38-2.463-0.62-3.553a7.672,7.672,0,0,0-1.09-2.726,7.126,7.126,0,0,0-2.7-2.519,8.967,8.967,0,0,0-3.49-.564,6.894,6.894,0,0,0-4.49,1.259,5.219,5.219,0,0,0-1.86,3.177,3.3,3.3,0,0,0,.59,2.726,3.18,3.18,0,0,0,2.65,1.109,4.44,4.44,0,0,0,2.62-.789,32.359,32.359,0,0,0,3.39-3.046,4.6,4.6,0,0,1,.9,2.576c0.17,1.291.35,2.525,0.51,3.7a23.922,23.922,0,0,0,1.06,4.117,6.891,6.891,0,0,0,2.55,3.365l-0.09.489a13.084,13.084,0,0,0-5.7,2.481,20.532,20.532,0,0,0-4.07,4.55c-0.82,1.2-1.54,2.312-2.17,3.327s-1.12,1.811-1.47,2.387a8.986,8.986,0,0,1-1.89,2.2,5.363,5.363,0,0,1-2.27.921c-0.49.1-1.08,0.194-1.76,0.282s-1.24.157-1.67,0.207l-0.44,2.481h12.41q1.59-3.308,2.76-5.527a46.852,46.852,0,0,1,2.98-4.85,19.494,19.494,0,0,1,4.7-5.132,9.933,9.933,0,0,1,5.76-1.56h0.72l-1.91,10.828a5.019,5.019,0,0,1-.88,2.2,3.326,3.326,0,0,1-1.75,1.185,6.23,6.23,0,0,1-1.61.263c-0.59.025-1.18,0.063-1.76,0.113l-0.44,2.481h17.78l0.44-2.481c-0.64-.05-1.25-0.125-1.82-0.226a5.414,5.414,0,0,1-1.58-.526,2.543,2.543,0,0,1-1.34-1.279,3.678,3.678,0,0,1-.13-2.105l1.84-10.452h0.71a7.439,7.439,0,0,1,5.12,1.579,11.563,11.563,0,0,1,2.92,5.113,36.544,36.544,0,0,1,1.32,5.095q0.36,2.2.76,5.282h12.48Zm45.08,0a14.487,14.487,0,0,1-1.86-.263,6.348,6.348,0,0,1-1.61-.564,2.348,2.348,0,0,1-1.32-1.26,4.076,4.076,0,0,1-.07-2.124l4.24-24.063a5.036,5.036,0,0,1,.89-2.2,3.252,3.252,0,0,1,1.77-1.185c0.47-.1.98-0.187,1.54-0.263s1.19-.137,1.93-0.188l0.44-2.481h-18.01l-0.44,2.481c0.52,0.051,1.08.126,1.71,0.226a6.336,6.336,0,0,1,1.83.6,2.706,2.706,0,0,1,1.36,1.241,4.12,4.12,0,0,1,.09,2.444l-20.33,18.5,3.38-19.175a5.167,5.167,0,0,1,.9-2.2,3.182,3.182,0,0,1,1.77-1.185q0.705-.149,1.53-0.263c0.55-.075,1.19-0.137,1.93-0.188l0.44-2.481h-18.01l-0.44,2.481c0.52,0.051,1.08.126,1.67,0.226a6.2,6.2,0,0,1,1.79.6,2.646,2.646,0,0,1,1.36,1.3,3.544,3.544,0,0,1,.15,2.086L1174,509.885a5.024,5.024,0,0,1-.89,2.2,3.46,3.46,0,0,1-1.77,1.185,7.6,7.6,0,0,1-1.65.3c-0.63.051-1.23,0.1-1.82,0.151l-0.43,2.481h18l0.44-2.481a14.233,14.233,0,0,1-1.89-.263,7.1,7.1,0,0,1-1.65-.564,2.6,2.6,0,0,1-1.35-1.279,3.571,3.571,0,0,1-.16-2.1l0.12-.639,20.32-18.461-3.43,19.476a4.632,4.632,0,0,1-.95,2.2,3.807,3.807,0,0,1-1.83,1.185,7.6,7.6,0,0,1-1.65.3c-0.62.051-1.23,0.1-1.81,0.151l-0.44,2.481h18.01Zm37.02-7.858a20,20,0,0,1-5.67,5.621,11.844,11.844,0,0,1-6.04,1.56,10.568,10.568,0,0,1-5.42-1.26,8.084,8.084,0,0,1-3.23-3.44,13.592,13.592,0,0,1-1.28-5.226,28.961,28.961,0,0,1,.47-6.617h24.55l0.44-2.481a20.928,20.928,0,0,0,.25-6.2,11.523,11.523,0,0,0-1.7-4.963,9.6,9.6,0,0,0-4.08-3.5,15.611,15.611,0,0,0-6.73-1.278,17.145,17.145,0,0,0-7.42,1.636,21.028,21.028,0,0,0-6.08,4.3,26.021,26.021,0,0,0-6.86,13.347,26.062,26.062,0,0,0-.28,7.632,15.161,15.161,0,0,0,2.14,6.316,12.015,12.015,0,0,0,4.79,4.287,16.483,16.483,0,0,0,7.56,1.579,17.98,17.98,0,0,0,9.45-2.632,24.51,24.51,0,0,0,7.49-7.068Zm-20.61-12.52a18.343,18.343,0,0,1,4.45-9.155,9.756,9.756,0,0,1,7.14-3.29,5.594,5.594,0,0,1,3.68,1.09,6,6,0,0,1,1.88,2.82,12.562,12.562,0,0,1,.43,4.023,30.008,30.008,0,0,1-.44,4.512h-17.14Zm67.96,20.378a14.24,14.24,0,0,1-1.86-.263,6.348,6.348,0,0,1-1.61-.564,2.348,2.348,0,0,1-1.32-1.26,4.076,4.076,0,0,1-.07-2.124l4.24-24.063a5.036,5.036,0,0,1,.89-2.2,3.252,3.252,0,0,1,1.77-1.185q0.7-.149,1.53-0.263c0.56-.075,1.2-0.137,1.94-0.188l0.43-2.481h-18.01l-0.43,2.481q0.765,0.077,1.71.226a6.336,6.336,0,0,1,1.83.6,2.748,2.748,0,0,1,1.36,1.241,4.2,4.2,0,0,1,.09,2.444l-20.33,18.5,3.38-19.175a5.044,5.044,0,0,1,.9-2.2,3.182,3.182,0,0,1,1.77-1.185q0.7-.149,1.53-0.263c0.55-.075,1.19-0.137,1.93-0.188l0.44-2.481h-18.01l-0.44,2.481c0.52,0.051,1.07.126,1.67,0.226a6.3,6.3,0,0,1,1.79.6,2.588,2.588,0,0,1,1.35,1.3,3.46,3.46,0,0,1,.16,2.086l-4.24,24.063a4.913,4.913,0,0,1-.9,2.2,3.392,3.392,0,0,1-1.76,1.185,7.582,7.582,0,0,1-1.66.3l-1.81.151-0.44,2.481h18.01l0.44-2.481a14.233,14.233,0,0,1-1.89-.263,7.1,7.1,0,0,1-1.65-.564,2.6,2.6,0,0,1-1.35-1.279,3.571,3.571,0,0,1-.16-2.1l0.12-.639,20.32-18.461-3.43,19.476a4.632,4.632,0,0,1-.95,2.2,3.807,3.807,0,0,1-1.83,1.185,7.6,7.6,0,0,1-1.65.3c-0.62.051-1.23,0.1-1.81,0.151l-0.44,2.481h18.01Zm-0.04-52.769a2.865,2.865,0,0,0-2.41-1.146,5.141,5.141,0,0,0-2.71.827,3.737,3.737,0,0,0-1.68,2.707,7.522,7.522,0,0,0,.03,2.312c0.13,0.89.25,1.573,0.37,2.049a7.232,7.232,0,0,1-3.19,1.861,12.517,12.517,0,0,1-3.6.583,9.479,9.479,0,0,1-3.44-.6,4.736,4.736,0,0,1-2.37-1.842c0.25-.4.6-1.046,1.06-1.936a8.709,8.709,0,0,0,.88-2.425,2.6,2.6,0,0,0-.73-2.707,3.845,3.845,0,0,0-2.44-.827,4.067,4.067,0,0,0-2.78,1.146,5,5,0,0,0-1.59,2.952,6.749,6.749,0,0,0,.13,2.763,6.256,6.256,0,0,0,1.55,2.839,9.474,9.474,0,0,0,3.47,2.237,16.019,16.019,0,0,0,5.83.883,18.615,18.615,0,0,0,6.22-.864,15.88,15.88,0,0,0,4.22-2.256,10.207,10.207,0,0,0,2.54-2.82,8.424,8.424,0,0,0,1.19-2.782A3.652,3.652,0,0,0,1293.94,460.951Zm89.17,52.581a18.893,18.893,0,0,1-2.68-.357,7.581,7.581,0,0,1-2.28-.7,2.971,2.971,0,0,1-1.45-1.579,4.5,4.5,0,0,1-.06-2.218l6.78-38.463a6.589,6.589,0,0,1,.86-2.293,3.512,3.512,0,0,1,1.99-1.5,19.681,19.681,0,0,1,2.49-.564,20.436,20.436,0,0,1,2.75-.338l0.47-2.67h-17.41a22.434,22.434,0,0,1-1.02,2.688,41.31,41.31,0,0,1-1.9,3.854l-18.95,33.462-8.21-40h-18.2l-0.47,2.67a13.187,13.187,0,0,1,3.25.563,5.973,5.973,0,0,1,2.59,1.5,4.871,4.871,0,0,1,1.19,2.444,10.782,10.782,0,0,1-.12,3.873l-4.81,27.3a41.78,41.78,0,0,1-1.78,7.294,6.95,6.95,0,0,1-2.37,3.233,8.365,8.365,0,0,1-3.1,1.241,30.1,30.1,0,0,1-3.65.564l-0.47,2.669h21.54l0.47-2.669a18.659,18.659,0,0,1-3.25-.752,7.077,7.077,0,0,1-3.16-1.5,5.421,5.421,0,0,1-1.17-3.459,31.289,31.289,0,0,1,.66-7.031l5.61-31.845h0.49l9.15,46.4h1.88l26.21-45.455h0.57l-6.84,38.8a5.321,5.321,0,0,1-.96,2.312,6.318,6.318,0,0,1-2,1.635,9.326,9.326,0,0,1-2.87.64c-1.37.15-2.48,0.238-3.34,0.263l-0.47,2.669h23.57Zm41.4-.414c-0.85,0-1.69-.012-2.5-0.037a3.443,3.443,0,0,1-1.72-.376,3.2,3.2,0,0,1-1.3-1.467,4.282,4.282,0,0,1-.09-2.331q0.87-4.924,1.71-9.08t1.79-9.531a15.576,15.576,0,0,0,.09-6.147,6.783,6.783,0,0,0-2.25-3.778,8.3,8.3,0,0,0-3.94-1.861,29.422,29.422,0,0,0-5.43-.433,17.416,17.416,0,0,0-4.83.733,20.877,20.877,0,0,0-4.41,1.786,15.814,15.814,0,0,0-3.67,2.82,6.443,6.443,0,0,0-1.81,3.309,4.758,4.758,0,0,0,.36,2.989,2.529,2.529,0,0,0,2.53,1.334,5.439,5.439,0,0,0,3.48-1.09,4.019,4.019,0,0,0,1.61-2.406,11.876,11.876,0,0,0,.12-2.707,9.644,9.644,0,0,1,.03-2.219,7.328,7.328,0,0,1,2.3-1.221,9.574,9.574,0,0,1,3.32-.583,5.559,5.559,0,0,1,3.71,1.034,5.881,5.881,0,0,1,1.7,2.425,6.989,6.989,0,0,1,.41,2.632,14.254,14.254,0,0,1-.12,1.879l-0.66,3.723a60.661,60.661,0,0,1-7.45,2.707c-3.65,1.153-6.07,1.942-7.28,2.368a27.06,27.06,0,0,0-3.14,1.41,12.28,12.28,0,0,0-5.18,5.057,13.105,13.105,0,0,0-1.28,3.835,7.66,7.66,0,0,0,1.51,6.692,8.061,8.061,0,0,0,6.41,2.557,16.316,16.316,0,0,0,7-1.429,23.531,23.531,0,0,0,5.98-4.135h0.22a5.242,5.242,0,0,0,1.53,4,6.411,6.411,0,0,0,4.44,1.372,11.424,11.424,0,0,0,3.1-.395c0.94-.263,2.03-0.607,3.28-1.034Zm-12.56-4.474a17.916,17.916,0,0,1-3.96,3.064,9.739,9.739,0,0,1-4.93,1.3,5.094,5.094,0,0,1-3.9-1.466q-1.38-1.465-.82-4.587a9.026,9.026,0,0,1,1.82-4.154,13.192,13.192,0,0,1,3.5-3.027,27.763,27.763,0,0,1,4.88-2.256q2.565-.9,5.92-1.842Zm54.95-29.514h-34.59l-2.1,11.881h2.29c0.27-.527.72-1.31,1.36-2.35a28.511,28.511,0,0,1,1.96-2.839,23.248,23.248,0,0,1,2.37-2.444,4.282,4.282,0,0,1,2.31-1.24c0.58-.05,1.38-0.094,2.39-0.132s1.92-.069,2.72-0.094l-4.93,27.973a5.024,5.024,0,0,1-.89,2.2,3.46,3.46,0,0,1-1.77,1.185,8.1,8.1,0,0,1-1.84.3c-0.75.051-1.42,0.1-2,.151l-0.44,2.481h18.87l0.44-2.481a18.939,18.939,0,0,1-2.02-.263,6.869,6.869,0,0,1-1.78-.564,2.6,2.6,0,0,1-1.35-1.279,3.493,3.493,0,0,1-.16-2.1l4.87-27.6q1.005,0,2.43.057c0.95,0.037,1.8.093,2.56,0.169a2.97,2.97,0,0,1,1.95,1.222,10.679,10.679,0,0,1,1.43,2.462,21.631,21.631,0,0,1,.97,2.707,21.275,21.275,0,0,1,.56,2.482h2.29Zm29.12,26.732a20,20,0,0,1-5.67,5.621,11.881,11.881,0,0,1-6.05,1.56,10.568,10.568,0,0,1-5.42-1.26,8.06,8.06,0,0,1-3.22-3.44,13.414,13.414,0,0,1-1.28-5.226,28.405,28.405,0,0,1,.47-6.617h24.55l0.44-2.481a21.622,21.622,0,0,0,.25-6.2,11.656,11.656,0,0,0-1.7-4.963,9.69,9.69,0,0,0-4.09-3.5,15.58,15.58,0,0,0-6.73-1.278,17.133,17.133,0,0,0-7.41,1.636,20.894,20.894,0,0,0-6.08,4.3,25.1,25.1,0,0,0-4.47,6.26,25.714,25.714,0,0,0-2.4,7.087,26.046,26.046,0,0,0-.27,7.632,15.021,15.021,0,0,0,2.14,6.316,11.883,11.883,0,0,0,4.79,4.287,16.483,16.483,0,0,0,7.56,1.579,18.031,18.031,0,0,0,9.45-2.632,24.623,24.623,0,0,0,7.49-7.068Zm-20.61-12.52a18.343,18.343,0,0,1,4.45-9.155,9.756,9.756,0,0,1,7.14-3.29,5.594,5.594,0,0,1,3.68,1.09,5.983,5.983,0,0,1,1.87,2.82,12.535,12.535,0,0,1,.44,4.023,31.371,31.371,0,0,1-.44,4.512h-17.14Zm61.09-13.761a12.208,12.208,0,0,0-6.07-1.466,14.016,14.016,0,0,0-6.02,1.5,20.617,20.617,0,0,0-5.51,3.759l-0.29-.075,0.73-4.173-0.44-.451-12.78.827-0.43,2.444a16.427,16.427,0,0,1,2.27.319,4.457,4.457,0,0,1,1.76.7,3.79,3.79,0,0,1,1.17,1.692,4.238,4.238,0,0,1,.18,2.18l-6.96,39.44a5.865,5.865,0,0,1-.84,2.219,3.231,3.231,0,0,1-1.81,1.316,11.623,11.623,0,0,1-2.02.376c-0.74.075-1.51,0.137-2.29,0.187l-0.45,2.52h20.72l0.44-2.52a17.594,17.594,0,0,1-2.7-.357,14.529,14.529,0,0,1-2.45-.658,2.363,2.363,0,0,1-1.39-1.316,4.126,4.126,0,0,1-.13-2.255l1.96-11.129h0.31a10.389,10.389,0,0,0,3.18,1.767,15.675,15.675,0,0,0,5.36.752,17.412,17.412,0,0,0,6.78-1.391,23.3,23.3,0,0,0,6.31-3.986,25.146,25.146,0,0,0,4.96-6.185,23.928,23.928,0,0,0,2.88-8.027,22.885,22.885,0,0,0,.18-7.952,15.681,15.681,0,0,0-2.36-6.109A12.053,12.053,0,0,0,1536.5,479.581Zm-10.4,33.744a9.268,9.268,0,0,1-4.26,1.109,7.58,7.58,0,0,1-3.2-.583,8.31,8.31,0,0,1-2.25-1.522,7.373,7.373,0,0,1-1.38-1.88,6.5,6.5,0,0,1-.74-2.106l3.86-21.919a18.44,18.44,0,0,1,3.9-2.914,9.937,9.937,0,0,1,4.95-1.222,7.755,7.755,0,0,1,4.73,1.354,8.086,8.086,0,0,1,2.72,3.534,14.1,14.1,0,0,1,.99,5.038,27.453,27.453,0,0,1-.4,5.677,33.148,33.148,0,0,1-1.93,6.88,20.551,20.551,0,0,1-3.17,5.415A12.148,12.148,0,0,1,1526.1,513.325Zm61.25,0.395a14.329,14.329,0,0,1-1.85-.263,6.348,6.348,0,0,1-1.61-.564,2.287,2.287,0,0,1-1.32-1.26,4.062,4.062,0,0,1-.08-2.124l4.24-24.063a5.167,5.167,0,0,1,.9-2.2,3.182,3.182,0,0,1,1.77-1.185q0.7-.149,1.53-0.263c0.55-.075,1.2-0.137,1.93-0.188l0.44-2.481h-18.01l-0.44,2.481q0.78,0.077,1.71.226a6.336,6.336,0,0,1,1.83.6,2.706,2.706,0,0,1,1.36,1.241,4.186,4.186,0,0,1,.1,2.444l-20.33,18.5,3.38-19.175a5.036,5.036,0,0,1,.89-2.2,3.182,3.182,0,0,1,1.77-1.185q0.7-.149,1.53-0.263c0.55-.075,1.2-0.137,1.93-0.188l0.44-2.481h-18.01l-0.44,2.481q0.78,0.077,1.68.226a6.4,6.4,0,0,1,1.79.6,2.588,2.588,0,0,1,1.35,1.3,3.62,3.62,0,0,1,.16,2.086l-4.25,24.063a4.8,4.8,0,0,1-.89,2.2,3.46,3.46,0,0,1-1.77,1.185,7.6,7.6,0,0,1-1.65.3c-0.62.051-1.23,0.1-1.81,0.151l-0.44,2.481h18.01l0.44-2.481a14.233,14.233,0,0,1-1.89-.263,6.8,6.8,0,0,1-1.65-.564,2.661,2.661,0,0,1-1.36-1.279,3.579,3.579,0,0,1-.15-2.1l0.11-.639,20.33-18.461-3.44,19.476a4.632,4.632,0,0,1-.95,2.2,3.761,3.761,0,0,1-1.83,1.185,7.377,7.377,0,0,1-1.65.3l-1.81.151-0.44,2.481h18.01ZM362.505,531.787q-2.014,1.114-5.018,2.871a37.082,37.082,0,0,0-5.852,4.278,31.733,31.733,0,0,0-4.972,5.595,17.159,17.159,0,0,0-2.864,6.944q-0.951,5.391.633,8.7t6.624,3.31a7.555,7.555,0,0,0,5.445-2.138,8.435,8.435,0,0,0,2.657-4.6q0.609-3.456-1.156-5.244t-5.4-1.787h-2.813a19.784,19.784,0,0,1,2.109-4.981,17.767,17.767,0,0,1,3.17-3.691,26.549,26.549,0,0,1,3.989-3.018q1.9-1.142,4.934-2.724Zm21.679,0q-2.013,1.114-5.018,2.871a37.174,37.174,0,0,0-5.852,4.278,31.768,31.768,0,0,0-4.971,5.595,17.174,17.174,0,0,0-2.865,6.944q-0.95,5.391.634,8.7t6.624,3.31a7.557,7.557,0,0,0,5.445-2.138,8.441,8.441,0,0,0,2.657-4.6q0.609-3.456-1.156-5.244t-5.4-1.787h-2.813a20.109,20.109,0,0,1,2.074-4.951,17.526,17.526,0,0,1,3.2-3.721,26.549,26.549,0,0,1,3.989-3.018q1.9-1.142,4.934-2.724Zm56.222,46.846a39.428,39.428,0,0,0-7.682-1.787l0.092-.528a42.21,42.21,0,0,0,7.969-2.49,32.743,32.743,0,0,0,6.879-3.955,22.133,22.133,0,0,0,5.492-5.889,21.25,21.25,0,0,0,2.961-7.822,14.351,14.351,0,0,0-.718-8.555,13.02,13.02,0,0,0-4.7-5.566,20.992,20.992,0,0,0-7.216-3.105,38.159,38.159,0,0,0-8.37-.879H396.732L396,542.217a26.471,26.471,0,0,1,3.53.586,14.079,14.079,0,0,1,3.688,1.347,3.981,3.981,0,0,1,2.232,2.461,8.149,8.149,0,0,1,.054,3.516l-10.538,59.766a8.448,8.448,0,0,1-1.387,3.545,6.8,6.8,0,0,1-2.966,2.2,17.59,17.59,0,0,1-4.027.908q-2.763.381-4.19,0.5l-0.733,4.16h39.375a39.968,39.968,0,0,0,10.473-1.406,36.517,36.517,0,0,0,9.6-4.1,28.19,28.19,0,0,0,7.8-7.031,22.809,22.809,0,0,0,4.3-10.078,16.927,16.927,0,0,0-.7-9.668,15.743,15.743,0,0,0-4.9-6.445A22.362,22.362,0,0,0,440.406,578.633Zm-10.893-5.01a26.424,26.424,0,0,1-8.449,1.231h-7.442l5.631-31.934,4.8-.147q2.856-.087,4.732-0.087,8.087,0,11.148,3.9t1.855,10.752a29.033,29.033,0,0,1-2.1,7.09,18.261,18.261,0,0,1-3.988,5.508A16.215,16.215,0,0,1,429.513,573.623Zm2.319,37.852q-5.528,5.1-14.258,5.1-5.333,0-7.989-1.875t-2.007-5.566l5.165-29.3q1.3-.057,3.893-0.146t6.344-.088q9.2,0,13.313,4.746t2.813,12.129Q437.358,606.377,431.832,611.475ZM499,618.682a39.257,39.257,0,0,0,12.128-10.957l-3.316-2.461a34.929,34.929,0,0,1-8.577,8.261,18.212,18.212,0,0,1-10.007,2.754,12.083,12.083,0,0,1-11.471-6.884q-3.621-6.885-1.7-17.784a50.9,50.9,0,0,1,3.446-11.894,29.424,29.424,0,0,1,4.91-7.91,17.836,17.836,0,0,1,5.731-4.424,13.867,13.867,0,0,1,5.573-1.2,14.645,14.645,0,0,1,4.374.615,4.06,4.06,0,0,1,2.706,2.432,34.251,34.251,0,0,1-1.538,4.072,24.619,24.619,0,0,0-1.659,5.42,4.449,4.449,0,0,0,1.211,3.925q1.595,1.758,5.052,1.758a6.074,6.074,0,0,0,5.027-2.256,11.289,11.289,0,0,0,2.32-5.185q1.24-7.032-3.373-11.1t-13.111-4.072a28.485,28.485,0,0,0-11.816,2.549,33.13,33.13,0,0,0-9.855,6.709,40,40,0,0,0-7.237,9.639,37.891,37.891,0,0,0-3.913,11.4q-2.469,14.005,3.153,22.324t18.162,8.321A27.587,27.587,0,0,0,499,618.682Zm64.33-13.594q-4.63,6.329-8.839,8.76a18.491,18.491,0,0,1-9.423,2.431,16.464,16.464,0,0,1-8.443-1.963,12.6,12.6,0,0,1-5.031-5.361,21.1,21.1,0,0,1-1.992-8.144,44.892,44.892,0,0,1,.734-10.313H568.6l0.682-3.867a33.04,33.04,0,0,0,.387-9.668,18.023,18.023,0,0,0-2.65-7.734,15,15,0,0,0-6.364-5.45,24.281,24.281,0,0,0-10.488-1.992,26.73,26.73,0,0,0-11.553,2.549,32.612,32.612,0,0,0-9.474,6.709,40.38,40.38,0,0,0-10.7,20.8,40.376,40.376,0,0,0-.427,11.894,23.51,23.51,0,0,0,3.332,9.844,18.6,18.6,0,0,0,7.465,6.68,25.66,25.66,0,0,0,11.783,2.461,28.062,28.062,0,0,0,14.727-4.1,38.34,38.34,0,0,0,11.669-11.016ZM531.2,585.576q1.965-9.141,6.94-14.267t11.129-5.127a8.722,8.722,0,0,1,5.735,1.7,9.309,9.309,0,0,1,2.917,4.394,19.5,19.5,0,0,1,.681,6.27,48.406,48.406,0,0,1-.683,7.031H531.2Zm96.413,31.758a9.349,9.349,0,0,1-5.408-1.729,11.794,11.794,0,0,1-3.062-4.072q-2.5-5.1-4.992-9.9t-6.5-12.3q5.92-6.329,9.206-9.844t5.644-5.918a23.859,23.859,0,0,1,4.932-3.72,29.72,29.72,0,0,1,7.522-2.783l0.641-3.633H614.269l-0.661,3.75a18.669,18.669,0,0,1,3.657,1.025q1.891,0.734,1.675,1.963a3.836,3.836,0,0,1-.446,1.2,9.378,9.378,0,0,1-.649,1.026q-2.885,3.4-6.271,7.148t-5.932,6.563q-2.348-4.629-4.34-8.79t-2.927-6.152a12.312,12.312,0,0,1-.632-1.406,2.257,2.257,0,0,1-.145-1.172q0.144-.82,2-1.055a30,30,0,0,1,3.732-.234l0.682-3.867H578.878l-0.682,3.867a8.411,8.411,0,0,1,5.295,1.377,10.809,10.809,0,0,1,2.851,3.6q2.088,4.1,5.305,10.284t5.451,10.459q-6.4,7.031-10.371,11.132t-6.2,6.446a28.893,28.893,0,0,1-5.211,4.131,27.487,27.487,0,0,1-6.917,2.841l-0.641,3.633h21.387l0.661-3.75a12.654,12.654,0,0,1-4.809-1.142,2.011,2.011,0,0,1-1.292-2.139,4.054,4.054,0,0,1,.687-1.406A15.009,15.009,0,0,1,585.5,611.3q3.525-4.042,6.739-7.647t6.932-7.412q2.751,5.332,4.623,9.17t2.934,6.123q0.42,0.939.81,2.051a3.65,3.65,0,0,1,.3,1.641q-0.217,1.23-2.115,1.523t-4.585.586l-0.682,3.867h26.485Zm73.414,1.348a39.257,39.257,0,0,0,12.128-10.957l-3.316-2.461a34.912,34.912,0,0,1-8.577,8.261,18.211,18.211,0,0,1-10.006,2.754,12.084,12.084,0,0,1-11.472-6.884q-3.62-6.885-1.7-17.784a50.95,50.95,0,0,1,3.445-11.894,29.424,29.424,0,0,1,4.91-7.91,17.836,17.836,0,0,1,5.731-4.424,13.872,13.872,0,0,1,5.574-1.2,14.643,14.643,0,0,1,4.373.615,4.058,4.058,0,0,1,2.706,2.432,34.071,34.071,0,0,1-1.538,4.072,24.619,24.619,0,0,0-1.659,5.42,4.446,4.446,0,0,0,1.212,3.925q1.595,1.758,5.052,1.758a6.074,6.074,0,0,0,5.026-2.256,11.3,11.3,0,0,0,2.321-5.185q1.239-7.032-3.374-11.1t-13.11-4.072a28.489,28.489,0,0,0-11.817,2.549,33.13,33.13,0,0,0-9.855,6.709,40.028,40.028,0,0,0-7.237,9.639,37.918,37.918,0,0,0-3.913,11.4q-2.469,14.005,3.153,22.324t18.162,8.321A27.587,27.587,0,0,0,701.03,618.682Zm76.234-1.348q-1.094-.117-2.434-0.322t-2.636-.5a7.519,7.519,0,0,1-2.835-1.2,5.942,5.942,0,0,1-2.178-3.6q-0.245-.936-1.041-3.9t-1.489-5.009a18.832,18.832,0,0,0-4.053-7.09,14.289,14.289,0,0,0-7.785-3.867l0.135-.762a20.531,20.531,0,0,0,5.039-4.16,40.09,40.09,0,0,0,4.895-7.324q1.361-2.4,2.95-5.6a12.6,12.6,0,0,1,2.877-4.19,36.524,36.524,0,0,0,3.336,4.512,5.084,5.084,0,0,0,3.893,1.348,6.793,6.793,0,0,0,4.744-1.817,7.522,7.522,0,0,0,2.435-4.336,5.425,5.425,0,0,0-1.252-4.863q-1.77-1.933-6.28-1.933a14.977,14.977,0,0,0-5.67,1.084,16.275,16.275,0,0,0-5.314,3.72,23.811,23.811,0,0,0-3.2,4.336q-1.7,2.813-3.1,5.449-1.323,2.52-3.119,5.391a21.627,21.627,0,0,1-3.745,4.629,11.217,11.217,0,0,1-3.6,2.109,11.535,11.535,0,0,1-4,.762h-3.692l2.986-16.934a7.907,7.907,0,0,1,1.395-3.427A4.981,4.981,0,0,1,747.292,568q1.1-.234,2.386-0.41t3.011-.293l0.682-3.867H725.187l-0.682,3.867q1.211,0.119,2.6.351a9.891,9.891,0,0,1,2.794.938,4.051,4.051,0,0,1,2.105,2.021,5.555,5.555,0,0,1,.246,3.252l-6.612,37.5a7.677,7.677,0,0,1-1.4,3.428,5.366,5.366,0,0,1-2.758,1.846,11.744,11.744,0,0,1-2.572.469q-1.458.117-2.825,0.234L715.41,621.2h28.184l0.682-3.867a22.164,22.164,0,0,1-2.888-.41,9.787,9.787,0,0,1-2.51-.879,4.1,4.1,0,0,1-2.11-1.992,5.523,5.523,0,0,1-.241-3.282l2.851-16.171h1.347q5.215,0,8.092,2.461t4.66,7.968a54.053,54.053,0,0,1,2.056,7.94q0.567,3.428,1.186,8.232h19.863Zm61.644-47.373q-6.44-8.174-18.568-8.174a31.736,31.736,0,0,0-22.173,8.613,38.061,38.061,0,0,0-11.787,22.149,32.388,32.388,0,0,0,.019,12.685,23.266,23.266,0,0,0,4.376,9.58,20.605,20.605,0,0,0,7.778,6.065,24.346,24.346,0,0,0,10.121,2.08,33.08,33.08,0,0,0,12.356-2.285,32.726,32.726,0,0,0,10.605-6.973,36.189,36.189,0,0,0,7.269-9.99,43.135,43.135,0,0,0,4.046-11.982Q845.349,578.136,838.908,569.961Zm-15.835,41.455q-5.527,7.09-12.852,7.09a10.929,10.929,0,0,1-7.093-2.139,12.91,12.91,0,0,1-3.972-5.888,26.492,26.492,0,0,1-1.4-8.526,55.75,55.75,0,0,1,.926-10.4,58.7,58.7,0,0,1,2.321-8.848,32.462,32.462,0,0,1,4.074-8.144,21.268,21.268,0,0,1,6.259-6.094,15.04,15.04,0,0,1,8.1-2.227,10.722,10.722,0,0,1,7.054,2.2,12.631,12.631,0,0,1,3.894,5.83,26.149,26.149,0,0,1,1.174,8.291,52.386,52.386,0,0,1-.758,9.287Q828.6,604.326,823.073,611.416Zm78.211-47.285a19.05,19.05,0,0,0-9.47-2.285,21.868,21.868,0,0,0-9.379,2.343,32.443,32.443,0,0,0-8.591,5.86l-0.448-.117,1.147-6.5-0.7-.7-19.916,1.289-0.671,3.808a25.837,25.837,0,0,1,3.545.5,6.974,6.974,0,0,1,2.738,1.084,5.865,5.865,0,0,1,1.821,2.637,6.546,6.546,0,0,1,.28,3.4L850.806,636.9a9.123,9.123,0,0,1-1.313,3.457,5.065,5.065,0,0,1-2.823,2.051,17.9,17.9,0,0,1-3.15.586q-1.731.175-3.568,0.293l-0.692,3.926h32.285l0.692-3.926a27.323,27.323,0,0,1-4.208-.557,22.64,22.64,0,0,1-3.833-1.025,3.7,3.7,0,0,1-2.158-2.051,6.373,6.373,0,0,1-.2-3.515L864.9,618.8h0.468a16.255,16.255,0,0,0,4.963,2.754,24.4,24.4,0,0,0,8.349,1.172,27.216,27.216,0,0,0,10.577-2.168,36.2,36.2,0,0,0,9.826-6.211,39.222,39.222,0,0,0,7.735-9.639,37.754,37.754,0,0,0,4.491-12.51,36.03,36.03,0,0,0,.281-12.392,24.618,24.618,0,0,0-3.683-9.522A18.78,18.78,0,0,0,901.284,564.131Zm-16.217,52.588a14.384,14.384,0,0,1-6.633,1.728,11.865,11.865,0,0,1-5-.908,13.223,13.223,0,0,1-3.507-2.373,11.9,11.9,0,0,1-2.15-2.93,10.51,10.51,0,0,1-1.149-3.281l6.024-34.16a28.865,28.865,0,0,1,6.073-4.541,15.466,15.466,0,0,1,7.719-1.9,12.066,12.066,0,0,1,7.363,2.109,12.692,12.692,0,0,1,4.243,5.508,22,22,0,0,1,1.546,7.851,43.114,43.114,0,0,1-.623,8.848,52.417,52.417,0,0,1-3,10.723,32.565,32.565,0,0,1-4.944,8.437A18.988,18.988,0,0,1,885.067,616.719Zm65.893-.352a13.966,13.966,0,0,1-7.5,2.139,12.1,12.1,0,0,1-7.11-1.875,11.062,11.062,0,0,1-3.961-5.449,24.772,24.772,0,0,1-1.379-7.969,57.929,57.929,0,0,1,1.059-11.484,54.349,54.349,0,0,1,2.374-8.819,33.917,33.917,0,0,1,4.128-8.115,22.847,22.847,0,0,1,6.2-5.918,15.071,15.071,0,0,1,8.313-2.285q4.569,0,7.1,2.08a12.3,12.3,0,0,1,3.768,5.713,25.042,25.042,0,0,1,1.147,8.115,59.894,59.894,0,0,1-3.631,19.6,40.421,40.421,0,0,1-4.486,8.5A20.851,20.851,0,0,1,950.96,616.367Zm-20.329-44.883q1.338-3.428,3.1-7.119,1.085-2.166,2.88-5.039a25.648,25.648,0,0,1,10.065-9.228,17.281,17.281,0,0,1,7.3-1.846q2.647-.057,6.3-0.352t6.2-.41a32.835,32.835,0,0,0,3.577-.351,8.311,8.311,0,0,0,2.42-.762,8.4,8.4,0,0,0,2.054-1.348q1.1-.936,2.709-2.4,1.94-1.7,4.633-4.512t4.293-4.57l-2.917-2.4a19.172,19.172,0,0,1-5.426,4.189,14.105,14.105,0,0,1-4.989,1.377q-2.678.236-7.377,0.469t-8.9.468a26.609,26.609,0,0,0-15.109,5.6A37.731,37.731,0,0,0,930.7,556.631a114.609,114.609,0,0,0-5.5,13.1,102.741,102.741,0,0,0-4.138,16.318,55.085,55.085,0,0,0-.737,16.641,26.626,26.626,0,0,0,3.971,11.543,18.19,18.19,0,0,0,7.544,6.562,23.314,23.314,0,0,0,10.018,2.168,32.035,32.035,0,0,0,12.791-2.432,35.047,35.047,0,0,0,10.287-6.826,35.889,35.889,0,0,0,7.381-9.961,42.889,42.889,0,0,0,4.062-12.07,36.521,36.521,0,0,0,.3-11.836,21.167,21.167,0,0,0-3.6-9.316,18.516,18.516,0,0,0-7.641-6.182,27.294,27.294,0,0,0-11.39-2.2,24.752,24.752,0,0,0-14.5,4.658,36.1,36.1,0,0,0-10.7,11.689l-0.449-.117A62.361,62.361,0,0,1,930.631,571.484Zm87.729,19.366q-7.9,0-11.65-3.047t-2.72-8.848a12.033,12.033,0,0,1,5.54-8.5,19.651,19.651,0,0,1,10.7-2.871h6.57l-4.1,23.262h-4.34ZM998.2,597a30.9,30.9,0,0,0-5.253,6.035q-1.9,2.813-3.326,5.068t-2.246,3.6a10.933,10.933,0,0,1-3.217,3.457,10.171,10.171,0,0,1-3.558,1.406q-1.449.236-2.681,0.41t-2.61.352l-0.682,3.867h19.746q2.221-4.628,4.181-8.262t4.764-7.91q3.825-5.742,7.27-7.822a16.994,16.994,0,0,1,8.89-2.08h2.46l-2.86,16.23a7.151,7.151,0,0,1-1.48,3.428,5.9,5.9,0,0,1-2.85,1.846,11.68,11.68,0,0,1-2.57.469c-0.97.078-1.91,0.156-2.83,0.234l-0.68,3.867h28.3l0.68-3.867a22.039,22.039,0,0,1-2.88-.41,9.681,9.681,0,0,1-2.51-.879,3.623,3.623,0,0,1-2.06-1.963,6.35,6.35,0,0,1-.12-3.311l6.61-37.5a7.887,7.887,0,0,1,1.4-3.427,4.986,4.986,0,0,1,2.76-1.846c0.73-.156,1.52-0.293,2.38-0.41s1.87-.214,3.01-0.293l0.69-3.867h-30.18a32.224,32.224,0,0,0-16.5,4.043q-6.96,4.043-8.177,10.957-0.991,5.625,1.966,9.287t10.591,5.244l-0.06.352A20.666,20.666,0,0,0,998.2,597Zm134.368,30.644a35.87,35.87,0,0,1,2.05,10.665h4.22l3.82-21.68h-3.75q-3.87,0-4.83-1.319c-0.65-.878-0.79-2.352-0.43-4.423l6.64-37.618a7.879,7.879,0,0,1,1.39-3.427,4.986,4.986,0,0,1,2.76-1.846c0.73-.156,1.53-0.293,2.39-0.41s1.86-.214,3.01-0.293l0.68-3.867h-27.66l-0.68,3.867c0.85,0.079,1.69.2,2.55,0.351a9.995,9.995,0,0,1,2.67.938,3.121,3.121,0,0,1,1.87,2.021,7.643,7.643,0,0,1,.02,3.252l-6.74,38.2a9.064,9.064,0,0,1-1.14,3.457q-0.705,1-3.24,1.113c-1.18.039-2.41,0.079-3.68,0.117s-2.33.059-3.15,0.059c-1.25,0-2.46-.03-3.65-0.088s-2.2-.088-3.06-0.088a5.794,5.794,0,0,1-3.8-1.2q-1.29-1.143-.73-4.307l6.67-37.852a10.413,10.413,0,0,1,1.17-3.281,4.08,4.08,0,0,1,2.69-1.992c0.73-.156,1.51-0.293,2.33-0.41s1.81-.214,2.95-0.293l0.68-3.867h-27.24l-0.68,3.867c0.84,0.079,1.69.2,2.54,0.351a10.176,10.176,0,0,1,2.68.938,3.146,3.146,0,0,1,1.87,2.021,7.663,7.663,0,0,1,.01,3.252l-6.74,38.2a9.09,9.09,0,0,1-1.13,3.457c-0.47.664-1.55,1.035-3.25,1.113-1.49.039-2.73,0.079-3.71,0.117s-2.06.059-3.23,0.059c-1.49,0-2.73-.03-3.74-0.088s-1.95-.088-2.85-0.088a5.522,5.522,0,0,1-3.82-1.26q-1.26-1.2-.7-4.365l6.66-37.735a9.74,9.74,0,0,1,1.18-3.222,4.437,4.437,0,0,1,2.79-2.051c0.73-.156,1.48-0.293,2.24-0.41s1.72-.214,2.87-0.293l0.68-3.867h-27.66l-0.68,3.867c0.81,0.079,1.68.2,2.6,0.351a9.979,9.979,0,0,1,2.8.938,3.807,3.807,0,0,1,2.04,2.051,6.167,6.167,0,0,1,.13,3.222l-6.61,37.5a7.721,7.721,0,0,1-1.39,3.428,5.425,5.425,0,0,1-2.76,1.846,12.084,12.084,0,0,1-2.69.469q-1.575.117-2.94,0.234l-0.68,3.867h81.97Q1130.645,621.961,1132.57,627.646Zm82.27-10.312a22.442,22.442,0,0,1-2.89-.41,9.95,9.95,0,0,1-2.51-.879,3.6,3.6,0,0,1-2.05-1.963,6.35,6.35,0,0,1-.12-3.311l6.61-37.5a7.887,7.887,0,0,1,1.4-3.427,4.962,4.962,0,0,1,2.75-1.846c0.73-.156,1.53-0.293,2.39-0.41s1.86-.214,3.01-0.293l0.68-3.867h-28.06l-0.69,3.867q1.215,0.119,2.67.351a9.771,9.771,0,0,1,2.85.938,4.2,4.2,0,0,1,2.12,1.934,6.541,6.541,0,0,1,.15,3.808l-31.69,28.828,5.27-29.883a7.887,7.887,0,0,1,1.4-3.427,4.986,4.986,0,0,1,2.76-1.846c0.73-.156,1.52-0.293,2.38-0.41s1.87-.214,3.01-0.293l0.68-3.867H1158.9l-0.68,3.867c0.8,0.079,1.67.2,2.6,0.351a9.815,9.815,0,0,1,2.79.938,4.058,4.058,0,0,1,2.11,2.021,5.551,5.551,0,0,1,.24,3.252l-6.61,37.5a7.721,7.721,0,0,1-1.39,3.428,5.384,5.384,0,0,1-2.76,1.846,11.68,11.68,0,0,1-2.57.469c-0.97.078-1.91,0.156-2.83,0.234l-0.68,3.867h28.07l0.68-3.867a22.41,22.41,0,0,1-2.95-.41,10.848,10.848,0,0,1-2.57-.879,4.06,4.06,0,0,1-2.1-1.992,5.516,5.516,0,0,1-.25-3.282l0.18-1,31.67-28.769-5.35,30.351a7.151,7.151,0,0,1-1.48,3.428,5.855,5.855,0,0,1-2.85,1.846,11.68,11.68,0,0,1-2.57.469q-1.455.117-2.82,0.234l-0.69,3.867h28.07Zm63.99,0a9.343,9.343,0,0,1-5.41-1.729,11.815,11.815,0,0,1-3.06-4.072q-2.5-5.1-5-9.9t-6.5-12.3q5.925-6.329,9.21-9.844t5.64-5.918a23.913,23.913,0,0,1,4.94-3.72,29.483,29.483,0,0,1,7.52-2.783l0.64-3.633h-21.33l-0.66,3.75a18.968,18.968,0,0,1,3.66,1.025c1.26,0.489,1.82,1.143,1.67,1.963a4.079,4.079,0,0,1-.44,1.2,10.191,10.191,0,0,1-.65,1.026q-2.895,3.4-6.28,7.148t-5.93,6.563q-2.34-4.629-4.34-8.79c-1.32-2.773-2.3-4.823-2.92-6.152a11.637,11.637,0,0,1-.64-1.406,2.358,2.358,0,0,1-.14-1.172c0.1-.547.76-0.9,2-1.055a30,30,0,0,1,3.73-.234l0.69-3.867h-25.14l-0.68,3.867a8.407,8.407,0,0,1,5.29,1.377,10.7,10.7,0,0,1,2.85,3.6c1.4,2.735,3.16,6.163,5.31,10.284s3.96,7.608,5.45,10.459q-6.4,7.031-10.37,11.132t-6.21,6.446a28.544,28.544,0,0,1-5.21,4.131,27.491,27.491,0,0,1-6.91,2.841l-0.65,3.633h21.39l0.66-3.75a12.7,12.7,0,0,1-4.81-1.142,2.015,2.015,0,0,1-1.29-2.139,3.965,3.965,0,0,1,.69-1.406,13.058,13.058,0,0,1,1.11-1.465q3.525-4.042,6.74-7.647t6.93-7.412q2.745,5.332,4.62,9.17t2.94,6.123q0.42,0.939.81,2.051a3.647,3.647,0,0,1,.29,1.641c-0.14.82-.85,1.328-2.11,1.523s-2.8.391-4.59,0.586l-0.68,3.867h26.48Zm104.78-73.682q-6.255-5.6-17.85-5.6h-37.97l-0.74,4.16c1.04,0.079,2.28.225,3.7,0.439a22.043,22.043,0,0,1,4.24,1.084,3.356,3.356,0,0,1,2.32,2.461,10.746,10.746,0,0,1-.07,3.692l-10.58,60a9.079,9.079,0,0,1-1.45,3.75,6.494,6.494,0,0,1-2.94,2.226,15.638,15.638,0,0,1-3.86.762q-2.715.294-4.14,0.41l-0.73,4.16h35.68l0.73-4.16a44.971,44.971,0,0,1-4.82-.41,16.251,16.251,0,0,1-3.58-.762,3.645,3.645,0,0,1-2.37-2.373,8.483,8.483,0,0,1-.04-3.6l4.45-25.2h9.31a43.864,43.864,0,0,0,11.58-1.523,37.245,37.245,0,0,0,10.63-4.8,29.863,29.863,0,0,0,8.52-8.291,28.92,28.92,0,0,0,4.58-11.514Q1389.86,549.249,1383.61,543.652Zm-22.52,33.985a25.563,25.563,0,0,1-10.63,1.963h-5.98l6.48-36.739h8.26a18.16,18.16,0,0,1,8.05,1.524,10.547,10.547,0,0,1,4.64,4.277,13.3,13.3,0,0,1,1.66,6.035,30.17,30.17,0,0,1-.4,6.8,29.29,29.29,0,0,1-1.61,5.42A19.847,19.847,0,0,1,1361.09,577.637Zm79.68,38.759c-1.33,0-2.63-.019-3.89-0.058a5.356,5.356,0,0,1-2.68-.586,4.984,4.984,0,0,1-2.03-2.285,6.652,6.652,0,0,1-.15-3.633q1.365-7.675,2.68-14.15t2.79-14.854a24.235,24.235,0,0,0,.14-9.58,10.657,10.657,0,0,0-3.51-5.889,12.935,12.935,0,0,0-6.14-2.9,45.932,45.932,0,0,0-8.46-.674,27.166,27.166,0,0,0-7.53,1.143,32.549,32.549,0,0,0-6.87,2.783,24.772,24.772,0,0,0-5.73,4.394,9.995,9.995,0,0,0-2.81,5.157,7.426,7.426,0,0,0,.55,4.658q1.02,2.08,3.94,2.08a8.473,8.473,0,0,0,5.43-1.7,6.282,6.282,0,0,0,2.51-3.75,17.537,17.537,0,0,0,.18-4.219,15.409,15.409,0,0,1,.06-3.457,11.311,11.311,0,0,1,3.58-1.9,14.9,14.9,0,0,1,5.17-.909q3.93,0,5.78,1.612a9.093,9.093,0,0,1,2.65,3.779,10.984,10.984,0,0,1,.65,4.1,24.51,24.51,0,0,1-.19,2.929l-1.03,5.8a94.819,94.819,0,0,1-11.61,4.219q-8.535,2.7-11.34,3.691a40.792,40.792,0,0,0-4.9,2.2,19.181,19.181,0,0,0-8.07,7.88,19.849,19.849,0,0,0-1.99,5.977q-1.14,6.446,2.35,10.43t9.99,3.984a25.451,25.451,0,0,0,10.91-2.227,36.783,36.783,0,0,0,9.31-6.445h0.35a8.123,8.123,0,0,0,2.39,6.24c1.56,1.426,3.87,2.139,6.91,2.139a17.832,17.832,0,0,0,4.83-.615c1.46-.41,3.16-0.947,5.12-1.612Zm-19.57-6.972a27.549,27.549,0,0,1-6.18,4.775,15.116,15.116,0,0,1-7.68,2.022,7.931,7.931,0,0,1-6.07-2.285q-2.145-2.286-1.29-7.149a14.117,14.117,0,0,1,2.84-6.475,20.8,20.8,0,0,1,5.46-4.716,43.464,43.464,0,0,1,7.6-3.516q3.99-1.405,9.23-2.871Zm21.49,7.031-3.82,21.68h4.22a41.672,41.672,0,0,1,6.42-11.309q4.185-5.333,7.45-5.859H1491q3.27,0.7,5.27,5.976a34.367,34.367,0,0,1,2.19,11.192h4.22l3.82-21.68h-3.75q-3.87,0-4.83-1.318c-0.65-.879-0.79-2.353-0.43-4.424l6.61-37.442a7.879,7.879,0,0,1,1.39-3.427,4.986,4.986,0,0,1,2.76-1.846c0.73-.156,1.52-0.293,2.39-0.41s1.86-.214,3.01-0.293l0.68-3.867h-52.62l-0.68,3.867c1.03,0.117,2.36.342,3.98,0.674a12.356,12.356,0,0,1,3.44,1.084,4.052,4.052,0,0,1,2,2.285,9.628,9.628,0,0,1-.03,4.512q-1.41,7.968-7.91,20.449a91.7,91.7,0,0,1-13.67,20.156h-6.15Zm26.42-21.064a114.746,114.746,0,0,0,8.86-27.159h16.12l-7.86,44.532a4.11,4.11,0,0,1-1.6,2.783,6.64,6.64,0,0,1-3.85.908h-25.26A90.915,90.915,0,0,0,1469.11,595.391Zm101.17-25.43q-6.45-8.174-18.57-8.174a31.756,31.756,0,0,0-22.18,8.613,38.086,38.086,0,0,0-11.78,22.149,32.311,32.311,0,0,0,.02,12.685,23.132,23.132,0,0,0,4.37,9.58,20.589,20.589,0,0,0,7.78,6.065,24.365,24.365,0,0,0,10.12,2.08,33.143,33.143,0,0,0,12.36-2.285A32.675,32.675,0,0,0,1563,613.7a36.05,36.05,0,0,0,7.27-9.99,43.31,43.31,0,0,0,4.05-11.982Q1576.72,578.136,1570.28,569.961Zm-15.84,41.455q-5.535,7.09-12.85,7.09a10.949,10.949,0,0,1-7.1-2.139,12.938,12.938,0,0,1-3.97-5.888,26.606,26.606,0,0,1-1.39-8.526,55.293,55.293,0,0,1,.92-10.4,59.056,59.056,0,0,1,2.32-8.848,32.609,32.609,0,0,1,4.08-8.144,21.247,21.247,0,0,1,6.26-6.094,15.03,15.03,0,0,1,8.09-2.227,10.752,10.752,0,0,1,7.06,2.2,12.624,12.624,0,0,1,3.89,5.83,26.193,26.193,0,0,1,1.18,8.291,53.145,53.145,0,0,1-.76,9.287Q1559.965,604.326,1554.44,611.416Zm63.29,7.266a39.3,39.3,0,0,0,12.13-10.957l-3.32-2.461a34.7,34.7,0,0,1-8.58,8.261,18.182,18.182,0,0,1-10,2.754,12.074,12.074,0,0,1-11.47-6.884q-3.63-6.885-1.7-17.784a51.008,51.008,0,0,1,3.44-11.894,29.6,29.6,0,0,1,4.91-7.91,17.834,17.834,0,0,1,5.73-4.424,13.882,13.882,0,0,1,5.58-1.2,14.6,14.6,0,0,1,4.37.615,4.056,4.056,0,0,1,2.71,2.432,33.643,33.643,0,0,1-1.54,4.072,24.411,24.411,0,0,0-1.66,5.42,4.468,4.468,0,0,0,1.21,3.925c1.06,1.172,2.75,1.758,5.05,1.758a6.074,6.074,0,0,0,5.03-2.256,11.278,11.278,0,0,0,2.32-5.185q1.245-7.032-3.37-11.1t-13.11-4.072a28.523,28.523,0,0,0-11.82,2.549,33.03,33.03,0,0,0-9.85,6.709,39.73,39.73,0,0,0-7.24,9.639,37.558,37.558,0,0,0-3.91,11.4q-2.475,14.005,3.15,22.324t18.16,8.321A27.585,27.585,0,0,0,1617.73,618.682Zm75.43-55.254h-53.91l-3.27,18.515h3.58c0.42-.82,1.12-2.04,2.11-3.662a44.889,44.889,0,0,1,3.06-4.424,35.088,35.088,0,0,1,3.69-3.808,6.671,6.671,0,0,1,3.6-1.934q1.365-.117,3.72-0.205c1.58-.058,2.99-0.107,4.25-0.146l-7.69,43.593a7.721,7.721,0,0,1-1.39,3.428,5.425,5.425,0,0,1-2.76,1.846,12.533,12.533,0,0,1-2.87.469c-1.16.078-2.2,0.156-3.11,0.234l-0.69,3.867h29.42l0.68-3.867a29.413,29.413,0,0,1-3.15-.41,10.509,10.509,0,0,1-2.77-.879,4.045,4.045,0,0,1-2.11-1.992,5.516,5.516,0,0,1-.25-3.282l7.59-43.007c1.05,0,2.32.029,3.79,0.088s2.81,0.146,4,.263a4.664,4.664,0,0,1,3.03,1.9,16.117,16.117,0,0,1,2.22,3.837,33.042,33.042,0,0,1,1.52,4.219,31.059,31.059,0,0,1,.87,3.867h3.57Zm38.08,44.707a16.369,16.369,0,0,1-2.88,4.511,13.259,13.259,0,0,1-4.65,3.282,16.812,16.812,0,0,1-6.88,1.289c-3.12,0-5.21-.41-6.25-1.231a3.537,3.537,0,0,1-1.14-3.691l3.64-20.625q0.99,0,2.91-.2a45.881,45.881,0,0,1,4.78-.205q6.855,0,9.81,3.486a9.719,9.719,0,0,1,2.09,8.408A23.57,23.57,0,0,1,1731.24,608.135Zm12.73-12.539a11.417,11.417,0,0,0-4.38-5.1,20.474,20.474,0,0,0-6.98-2.783,46.474,46.474,0,0,0-9.83-.908c-2.11,0-3.72.029-4.85,0.088s-2.47.108-4.04,0.146l2.43-13.77a8.774,8.774,0,0,1,1.28-3.281,4.818,4.818,0,0,1,2.88-1.992,18.236,18.236,0,0,1,2.86-.439c1.13-.1,2.28-0.185,3.47-0.264l0.68-3.867h-29.12l-0.68,3.867c0.81,0.079,1.67.2,2.6,0.351a9.979,9.979,0,0,1,2.8.938,4.037,4.037,0,0,1,2.1,2.021,5.627,5.627,0,0,1,.25,3.252l-6.61,37.5a7.726,7.726,0,0,1-1.4,3.428,5.343,5.343,0,0,1-2.76,1.846,11.68,11.68,0,0,1-2.57.469q-1.455.117-2.82,0.234l-0.69,3.867h30.47a32.6,32.6,0,0,0,8.27-1.055,28.739,28.739,0,0,0,7.59-3.164,22.423,22.423,0,0,0,6.14-5.537,18.155,18.155,0,0,0,3.4-8A13.865,13.865,0,0,0,1743.97,595.6Zm35.89-60.674q-1.575-3.311-6.56-3.311a7.669,7.669,0,0,0-5.48,2.139,8.291,8.291,0,0,0-2.67,4.541q-0.6,3.34,1.13,5.215c1.14,1.25,2.95,1.875,5.41,1.875h2.81a16.033,16.033,0,0,1-2.05,5.01,20.989,20.989,0,0,1-3.17,3.662,22.763,22.763,0,0,1-3.87,2.842q-2.46,1.494-5.11,2.9l1.38,3.457q1.86-.879,5.01-2.783a42.892,42.892,0,0,0,5.91-4.307,31.053,31.053,0,0,0,4.96-5.537,17.3,17.3,0,0,0,2.95-7.061C1781.13,540.01,1780.92,537.129,1779.86,534.922Zm21.68,0c-1.06-2.207-3.24-3.311-6.56-3.311a7.669,7.669,0,0,0-5.48,2.139,8.291,8.291,0,0,0-2.67,4.541q-0.6,3.34,1.13,5.215c1.14,1.25,2.95,1.875,5.41,1.875h2.81a16.033,16.033,0,0,1-2.05,5.01,20.989,20.989,0,0,1-3.17,3.662,22.763,22.763,0,0,1-3.87,2.842q-2.46,1.494-5.11,2.9l1.38,3.457q1.86-.879,5.01-2.783a42.892,42.892,0,0,0,5.91-4.307,31.053,31.053,0,0,0,4.96-5.537,17.3,17.3,0,0,0,2.95-7.061C1802.81,540.01,1802.6,537.129,1801.54,534.922Z"/>
</svg>
